<?xml version="1.0" standalone="no"?>
<!DOCTYPE svg PUBLIC "-//W3C//DTD SVG 20010904//EN"
 "http://www.w3.org/TR/2001/REC-SVG-20010904/DTD/svg10.dtd">
<svg version="1.0" xmlns="http://www.w3.org/2000/svg"
 width="718.000000pt" height="718.000000pt" viewBox="0 0 718.000000 718.000000"
 preserveAspectRatio="xMidYMid meet">
<metadata>
Created by potrace 1.14, written by Peter Selinger 2001-2017
</metadata>
<g transform="translate(0.000000,718.000000) scale(0.100000,-0.100000)"
fill="#000000" stroke="none">
<path d="M7080 6530 c-1455 -384 -1977 -581 -2515 -948 -613 -418 -1001 -846
-1209 -1335 -41 -95 -97 -257 -90 -257 2 0 -2 -16 -10 -35 -8 -19 -13 -35 -11
-35 3 0 1 -10 -4 -23 -5 -13 -12 -41 -15 -61 -11 -68 -21 -72 -41 -19 -92 246
-195 422 -365 628 -47 56 -235 242 -313 309 -85 73 -300 233 -412 307 -272
180 -593 328 -982 453 -107 34 -445 133 -488 142 -11 2 -148 39 -305 83 -287
78 -323 84 -315 43 2 -9 17 -76 34 -149 17 -72 32 -143 35 -157 13 -73 136
-450 181 -552 121 -280 238 -459 415 -633 204 -200 450 -371 746 -518 235
-116 343 -159 759 -300 566 -192 749 -285 940 -477 127 -127 182 -215 259
-409 38 -97 95 -277 111 -352 32 -154 42 -215 60 -355 16 -128 22 -484 11
-680 -12 -206 -18 -297 -21 -330 -2 -19 -5 -68 -6 -108 -1 -62 2 -77 18 -94
26 -26 81 -37 162 -34 100 4 152 40 149 103 0 10 3 128 7 263 17 504 8 856
-25 1060 -5 30 -12 80 -15 110 -4 30 -8 57 -10 60 -2 3 -6 26 -10 50 -11 74
-71 299 -103 385 -58 156 -146 332 -213 426 -23 33 -25 77 -2 108 43 62 410
265 643 356 97 38 275 98 590 200 315 102 633 238 880 379 25 14 59 33 75 42
67 38 240 148 243 156 2 4 8 8 13 8 5 0 51 30 102 66 344 248 580 516 742 842
107 214 260 646 320 899 3 10 9 38 16 63 6 25 12 52 14 60 2 8 12 53 23 100
29 121 31 165 10 172 -7 3 -42 -3 -78 -12z m-721 -717 c-197 -253 -563 -591
-964 -888 -336 -249 -680 -473 -1165 -755 -135 -79 -288 -171 -340 -205 -82
-53 -305 -217 -320 -235 -3 -3 -27 -24 -55 -45 l-50 -40 42 50 c52 63 180 186
258 248 33 27 67 54 75 60 104 83 352 247 565 372 459 269 472 277 723 444
220 146 611 434 652 481 3 3 17 15 32 26 88 68 216 184 402 366 83 80 153 145
155 142 2 -2 -2 -12 -10 -21z m-5369 -965 c106 -81 339 -238 503 -339 52 -33
432 -252 507 -292 188 -103 598 -353 665 -405 l30 -24 -35 20 c-33 18 -104 55
-495 257 -93 49 -201 105 -238 127 -38 21 -70 38 -72 38 -9 0 -307 178 -400
238 -103 67 -410 294 -480 356 -63 55 -138 129 -160 156 -15 19 -12 18 15 -6
19 -17 91 -74 160 -126z"/>
</g>
</svg>
